<svg width="1280" height="720" viewBox="0 0 1280 720" fill="none" xmlns="http://www.w3.org/2000/svg">
  <rect width="1280" height="720" fill="#F4F1EA"/>
  <rect x="76" y="48" width="1128" height="624" rx="28" fill="#FCFBF8" stroke="#DCD3C5"/>
  <rect x="120" y="92" width="420" height="22" rx="11" fill="#102A2B"/>
  <rect x="120" y="128" width="310" height="14" rx="7" fill="#6C7B7E"/>
  <rect x="120" y="178" width="480" height="150" rx="24" fill="#FFFFFF" stroke="#E6DED2"/>
  <rect x="624" y="178" width="520" height="150" rx="24" fill="#F2EFE8" stroke="#DDD5C8"/>
  <rect x="120" y="354" width="1024" height="118" rx="24" fill="#FFFFFF" stroke="#E6DED2"/>
  <rect x="120" y="498" width="490" height="124" rx="24" fill="#102A2B"/>
  <rect x="654" y="498" width="490" height="124" rx="24" fill="#FFFFFF" stroke="#E6DED2"/>
  <rect x="154" y="214" width="156" height="18" rx="9" fill="#D8CAB0"/>
  <rect x="154" y="248" width="230" height="14" rx="7" fill="#ECE5D9"/>
  <rect x="154" y="278" width="180" height="14" rx="7" fill="#ECE5D9"/>
  <rect x="658" y="214" width="150" height="18" rx="9" fill="#0D7B74"/>
  <rect x="658" y="248" width="440" height="14" rx="7" fill="#C9D6D5"/>
  <rect x="658" y="278" width="410" height="14" rx="7" fill="#C9D6D5"/>
  <rect x="154" y="392" width="920" height="14" rx="7" fill="#EAE4D9"/>
  <rect x="154" y="424" width="860" height="14" rx="7" fill="#EAE4D9"/>
  <rect x="154" y="538" width="190" height="16" rx="8" fill="#DDEDED"/>
  <rect x="154" y="572" width="392" height="14" rx="7" fill="#E7F4F4"/>
  <rect x="688" y="538" width="160" height="16" rx="8" fill="#D8CAB0"/>
  <rect x="688" y="572" width="396" height="14" rx="7" fill="#ECE5D9"/>
  <text x="120" y="74" fill="#102A2B" font-size="28" font-family="Arial, sans-serif" font-weight="700">Founder Report Preview</text>
  <text x="120" y="156" fill="#59686C" font-size="16" font-family="Arial, sans-serif">Exportable summary with KPIs, top risks, actions, and board-ready language</text>
  <text x="152" y="610" fill="#FCFBF8" font-size="14" font-family="Arial, sans-serif">AI summary and top actions</text>
  <text x="688" y="610" fill="#102A2B" font-size="14" font-family="Arial, sans-serif">Scenario comparison and board note</text>
</svg>
